HIERARCHY
ROOT pelvis
{
  OFFSET 0 100 0
  CHANNELS 6 Xposition Yposition Zposition Zrotation Xrotation Yrotation
  JOINT pelvis_right_femur
  {
    OFFSET -10.78128 -3.44521 -0.5502486
    CHANNELS 3 Zrotation Xrotation Yrotation
    JOINT right_femur_tibia
    {
      OFFSET -0.8047443 -44.0398 -0.1307829
      CHANNELS 3 Zrotation Xrotation Yrotation
      JOINT right_tibia_foot
      {
        OFFSET 3.006224 -47.83518 -5
        CHANNELS 3 Zrotation Xrotation Yrotation
        End Site
        {
          OFFSET 0 -5 15
        }
      }
    }
  }
  JOINT pelvis_left_femur
  {
    OFFSET 10.78128 -3.44521 -0.5502486
    CHANNELS 3 Zrotation Xrotation Yrotation
    JOINT left_femur_tibia
    {
      OFFSET 0.8047443 -44.0398 -0.1307829
      CHANNELS 3 Zrotation Xrotation Yrotation
      JOINT left_tibia_foot
      {
        OFFSET -4.370144 -48.10324 -4.275266
        CHANNELS 3 Zrotation Xrotation Yrotation
        End Site
        {
          OFFSET 0 -5 15
        }
      }
    }
  }
  JOINT pelvis_spine1
  {
    OFFSET 0 6.468898 -3.129235
    CHANNELS 3 Zrotation Xrotation Yrotation
    JOINT spine1
    {
      OFFSET 0 23.15396 4.99043
      CHANNELS 3 Zrotation Xrotation Yrotation
      JOINT spine2
      {
        OFFSET 0 20.79997 -5.064912
        CHANNELS 3 Zrotation Xrotation Yrotation
        JOINT neck
        {
          OFFSET 0 14.38658 9.616178
          CHANNELS 3 Zrotation Xrotation Yrotation
          End Site
          {
            OFFSET 0 20 0
          }
        }
      }
      JOINT right_manubrium
      {
        OFFSET -5.722621 16.35077 3.967754
        CHANNELS 3 Zrotation Xrotation Yrotation
        JOINT right_clavicle
        {
          OFFSET -13.16364 1.694482 -4.693211
          CHANNELS 3 Zrotation Xrotation Yrotation
          JOINT right_humerus
          {
            OFFSET -28.5034 -0.3100689 -2.792744
            CHANNELS 3 Zrotation Xrotation Yrotation
            JOINT right_radius
            {
              OFFSET -25.15693 0.02248979 -1.271978
              CHANNELS 3 Zrotation Xrotation Yrotation
              End Site
              {
                OFFSET -15 0 0
              }
            }
          }
        }
      }
      JOINT left_manubrium
      {
        OFFSET 5.722621 16.35077 3.967754
        CHANNELS 3 Zrotation Xrotation Yrotation
        JOINT left_clavicle
        {
          OFFSET 13.16364 1.694482 -4.693211
          CHANNELS 3 Zrotation Xrotation Yrotation
          JOINT left_humerus
          {
            OFFSET 29.39168 -1.063119 -2.237045
            CHANNELS 3 Zrotation Xrotation Yrotation
            JOINT left_radius
            {
              OFFSET 24.59957 -0.9528479 0.9047498
              CHANNELS 3 Zrotation Xrotation Yrotation
              End Site
              {
                OFFSET 15 -0 -0
              }
            }
          }
        }
      }
    }
  }
}
MOTION
Frames: 21
Frame Time: 0.0416666666667
0 103.5113 0 1.356016 -3.332301 0.149392 1.630137 -11.18201 7.07719 -0 39.81676 -0 -5.542712 -16.63682 -3.986785 -6.669264 12.79377 -23.4987 -0 5.951086 -0 1.010752 -18.82313 23.56342 -1.735755 -2.894386 4.229786 -0.4406802 7.427661 -7.181487 1.619333 22.15913 8.739096 5.913467 -20.74929 9.184048 6.488869 -18.48362 10.32737 88.93065 35.2787 -24.86851 -0 0 18.31809 -7.727985 8.804507 2.425657 7.740862 -20.68229 -2.804321 -101.7789 43.35641 29.0317 0 0 -24.98121 -10.59439 17.56595 28.17132
0.1132954 103.5864 1.373339 0.3911842 -2.565803 0.06285747 3.255866 -14.26245 8.605548 -0 41.88216 -0 -5.873181 -15.76844 -4.771797 -5.883654 13.10768 -23.75719 -0 6.437619 -0 -0.06947155 -19.97199 23.55139 -1.583361 -2.70322 4.204835 -0.354864 7.368243 -7.184631 1.61774 22.15648 8.676882 5.869612 -20.97307 9.138612 6.416521 -18.34799 10.31836 88.9648 35.36517 -24.80305 -0 0 17.93823 -7.71282 8.85711 2.500433 7.694343 -20.73365 -2.804986 -101.3755 43.08405 28.65123 0 0 -25.10182 -10.24485 17.5768 27.94222
0.3289231 102.8977 3.734598 -0.01008519 -0.3060161 0.1073533 4.248225 -24.8515 5.202303 -0 29.02304 -0 -6.533585 -9.842694 -2.824197 -5.905971 13.25217 -20.23339 -0 5.281992 -0 3.173222 -22.32383 21.69004 -2.283394 -1.25215 2.486777 2.364225 7.21751 -7.878816 0.9458275 22.62368 7.869361 4.3191 -23.52483 8.338858 6.095394 -17.135 11.1619 87.65999 34.8936 -22.27513 -0 0 13.3821 -9.249824 8.721239 5.879337 4.352842 -19.01704 -3.62531 -96.12425 38.07992 24.05214 0 0 -21.48021 -8.701963 15.81835 24.82774
0.5550045 102.0024 6.382147 -0.3186843 0.983371 0.2238391 5.055097 -28.63973 5.267305 -0 25.34224 -0 -6.286113 -8.306523 -2.699329 -5.85264 13.33521 -19.5483 -0 5.435496 -0 3.66813 -23.34924 21.3456 -2.166559 -0.9963116 2.428112 2.682797 7.446978 -8.094262 0.7875566 22.53686 7.827806 4.179206 -23.65999 8.086426 6.065574 -16.80269 11.359 87.85587 35.34791 -22.43108 -0 0 12.32209 -10.41548 9.63927 6.541285 4.08981 -19.26309 -3.555026 -94.93528 36.68457 22.97569 0 0 -21.30424 -7.818511 15.38063 23.78648
0.7866566 100.9755 9.396912 -0.5085337 2.18224 0.446498 5.74547 -31.75238 5.236265 -0 21.40693 -0 -5.913807 -6.821857 -2.422078 -5.919354 13.56015 -18.89952 -0 5.93135 -0 4.323925 -23.9982 21.04616 -2.094214 -0.901322 2.484068 2.86127 7.804023 -8.320654 0.6250833 22.4074 7.8669 4.10923 -23.50324 7.862015 6.078604 -16.58184 11.56815 88.17554 35.90689 -22.82204 -0 0 11.54436 -11.94661 10.84623 7.186756 3.968595 -19.63112 -3.413318 -93.98717 35.39689 22.15227 0 0 -21.17297 -7.069461 14.90438 22.84406
1.010736 99.82864 12.91186 -0.6437701 2.924151 0.783316 5.950247 -34.00987 4.526893 -0 17.59779 -0 -5.654661 -4.649218 -2.11512 -5.891807 14.14223 -17.6673 -0 6.888141 -0 4.044631 -24.30371 19.89305 -1.919858 -0.7646208 2.616569 2.875709 8.045662 -8.401795 0.5648258 22.29366 7.874119 4.100978 -23.39708 7.710509 6.05845 -16.43545 11.66339 88.38121 36.31526 -22.98623 -0 0 11.04345 -12.97885 11.69674 7.585963 3.974683 -19.95807 -3.302614 -93.34163 34.48029 21.61732 0 0 -21.25284 -6.3993 14.64711 22.21214
1.223893 98.64978 16.97076 -0.8006923 3.491221 1.229002 6.116944 -35.55125 3.905115 -0 14.42579 -0 -5.345887 -2.597445 -1.928561 -5.809323 14.85764 -16.41322 -0 8.394893 -0 3.321048 -24.19632 18.52596 -1.77204 -0.6207387 2.736917 2.887363 8.257911 -8.450272 0.5220606 22.19717 7.861772 4.075901 -23.31602 7.576502 6.031176 -16.32063 11.74313 88.48749 36.62089 -23.00508 -0 0 10.6209 -13.89974 12.40424 7.985118 3.949319 -20.20548 -3.226276 -92.74737 33.60632 21.13728 0 0 -21.28349 -5.794957 14.39738 21.6457
1.421381 97.51438 21.65713 -0.9973004 3.868064 1.763726 6.253449 -36.40395 3.318116 -0 11.73795 -0 -4.964994 -0.5435223 -1.904065 -5.635575 15.72143 -14.97604 -0 10.74668 -0 1.983214 -23.56749 16.76584 -1.630673 -0.4441401 2.8483 2.900141 8.438717 -8.462199 0.4989148 22.11588 7.818935 4.031106 -23.27653 7.446838 5.992113 -16.22041 11.80783 88.48048 36.83245 -22.84606 -0 0 10.23382 -14.70715 12.96968 8.392339 3.887363 -20.38414 -3.185896 -92.15562 32.72459 20.66672 0 0 -21.28265 -5.20256 14.15516 21.1076
1.600009 96.53307 27.03083 -1.268063 4.028903 2.342498 6.485164 -36.3349 2.973624 -0 9.903839 -0 -4.514218 1.225251 -2.117554 -5.321733 16.59081 -13.47093 -0 14.3262 -0 -0.0584839 -22.19245 14.66906 -1.494407 -0.2329712 2.962322 2.911656 8.605713 -8.439204 0.4919934 22.04446 7.744621 3.964887 -23.25885 7.31066 5.942717 -16.13455 11.86549 88.3532 36.96656 -22.49748 -0 0 9.873769 -15.46708 13.4364 8.833851 3.786391 -20.50764 -3.175508 -91.53667 31.78152 20.18488 0 0 -21.24448 -4.593233 13.9003 20.56344
1.754179 95.85345 33.11147 -1.6312 3.846836 2.8717 6.887359 -34.88922 3.018518 -0 9.429607 -0 -4.073541 2.311459 -2.627264 -4.787353 17.17966 -11.98128 -0 19.7973 -0 -2.876501 -19.6817 12.32099 -1.36325 0.01614362 3.094698 2.912441 8.76822 -8.371365 0.5035687 21.98101 7.633104 3.87541 -23.24562 7.160173 5.882563 -16.07247 11.91911 88.07319 37.02119 -21.91007 -0 0 9.560074 -16.21294 13.81437 9.327355 3.643897 -20.57612 -3.192672 -90.87994 30.74319 19.69218 0 0 -21.16089 -3.949559 13.62073 19.99717
1.87626 95.6457 39.76516 -2.068557 3.100155 3.182051 7.459151 -31.43474 3.52812 -0 11.05178 -0 -3.973223 1.951865 -3.372761 -3.961356 16.75862 -10.74667 -0 27.88302 -0 -6.187994 -15.68906 10.15767 -1.245974 0.2951362 3.266881 2.88592 8.933967 -8.243533 0.5370614 21.92569 7.480402 3.762487 -23.20732 6.991702 5.81228 -16.05765 11.97079 87.59643 36.98532 -21.02421 -0 0 9.349852 -16.97225 14.10336 9.884001 3.461565 -20.58174 -3.232058 -90.20274 29.60385 19.21938 0 0 -21.01528 -3.278579 13.30704 19.41277
1.961722 96.01641 46.56455 -2.44249 1.580268 3.061658 7.95494 -25.60069 4.160796 -0 14.78415 -0 -4.880425 -0.6506413 -3.997129 -2.982228 14.00243 -10.04862 -0 38.70233 -0 -9.000823 -10.58052 9.042826 -1.158446 0.5751801 3.508917 2.804767 9.110028 -8.039678 0.5949585 21.87859 7.292147 3.632397 -23.0961 6.811011 5.732449 -16.13038 12.02112 86.89138 36.85389 -19.80716 -0 0 9.345775 -17.78436 14.31779 10.50134 3.256769 -20.51723 -3.275595 -89.56491 28.40778 18.8428 0 0 -20.78609 -2.621947 12.95857 18.84438
2.033336 96.88309 52.89282 -2.376946 -0.4686153 2.486881 7.850872 -18.11144 4.10193 -0 17.86916 -0 -6.851768 -4.996897 -3.983404 -2.482488 7.877831 -9.81029 -0 50.22031 -0 -9.91052 -6.2581 9.626078 -1.113742 0.8072398 3.860632 2.629297 9.301998 -7.746812 0.6783467 21.83617 7.090516 3.500084 -22.85104 6.640631 5.636535 -16.3459 12.06614 85.96429 36.64832 -18.2852 -0 0 9.686311 -18.73451 14.52459 11.16483 3.071524 -20.3845 -3.281517 -89.06857 27.25193 18.68843 0 0 -20.44827 -2.05129 12.59213 18.35827
2.15871 98.04821 58.63103 -1.523477 -2.134837 1.792582 6.887705 -10.75453 3.512384 -0 16.39651 -0 -7.405855 -8.18096 -3.355842 -2.810827 -0.05770095 -9.325556 -0 58.74093 -0 -9.116413 -4.353238 11.01963 -1.119749 0.9494905 4.341122 2.337962 9.506694 -7.364548 0.7873895 21.79341 6.90132 3.372413 -22.43653 6.514546 5.50875 -16.74333 12.09823 84.85307 36.38125 -16.52599 -0 0 10.46805 -19.92409 14.81076 11.86697 2.942084 -20.17748 -3.210234 -88.79429 26.2218 18.85609 0 0 -19.96471 -1.639299 12.2304 18.01656
2.327786 99.26758 64.30753 -0.3209153 -3.366562 1.152787 5.660849 -4.964153 3.631245 -0 12.96127 -0 -5.026781 -8.320759 -2.968553 -2.985498 -6.356373 -8.078111 -0 62.75513 -0 -8.577447 -4.0577 12.24595 -1.183704 1.000421 4.887993 1.979431 9.705316 -6.931389 0.9165555 21.75278 6.732487 3.236075 -21.89478 6.453547 5.349711 -17.27427 12.11428 83.65357 35.99687 -14.6705 -0 0 11.59851 -21.29656 15.16104 12.5856 2.854331 -19.87669 -3.087131 -88.71705 25.33984 19.28339 0 0 -19.32284 -1.424867 11.88083 17.82636
2.435684 100.1746 70.09105 0.5236955 -5.001349 0.4831276 4.900481 -0.4456551 4.007296 -0 11.69996 -0 -2.813521 -7.859122 -3.282931 -2.515234 -10.23597 -6.644672 -0 61.78473 -0 -8.379415 -4.805558 14.17802 -1.292335 0.9950361 5.420138 1.619588 9.870329 -6.489161 1.058898 21.72445 6.574271 3.082362 -21.31128 6.44963 5.176205 -17.84517 12.1152 82.46813 35.45745 -12.85096 -0 0 12.88326 -22.65189 15.477 13.26669 2.777737 -19.48743 -2.966519 -88.76024 24.60204 19.82905 0 0 -18.58098 -1.380077 11.55735 17.75211
2.506775 100.5596 75.79156 0.8723606 -6.348001 -0.2216701 4.5461 3.617019 4.182915 -0 11.75064 -0 -1.985273 -9.081615 -3.478578 -1.623778 -14.01646 -5.553045 -0 56.04357 -0 -7.962544 -5.907259 16.37032 -1.423222 0.9652558 5.900978 1.291191 9.985164 -6.058287 1.207967 21.71565 6.417076 2.91502 -20.74343 6.481734 5.001117 -18.39682 12.10472 81.35065 34.79055 -11.12856 -0 0 14.18774 -23.84876 15.69635 13.86977 2.700357 -19.03991 -2.87259 -88.87019 23.99979 20.40167 0 0 -17.81365 -1.449427 11.27748 17.75391
2.630128 100.3165 81.37286 0.8062737 -6.807384 -0.9403455 4.394547 7.385968 4.187845 -0 11.86784 -0 -1.720286 -11.67532 -3.170461 -0.3505103 -18.49024 -4.549584 -0 46.85967 -0 -7.441431 -6.695214 18.12488 -1.561613 0.9259229 6.291255 1.021474 10.06695 -5.679126 1.351898 21.72372 6.265129 2.742495 -20.2143 6.532301 4.847824 -18.86408 12.09168 80.40718 34.04741 -9.650902 -0 0 15.36222 -24.82402 15.82339 14.36694 2.616361 -18.58668 -2.82708 -88.98416 23.5083 20.89834 0 0 -17.08433 -1.59173 11.03524 17.79396
2.879807 99.45726 86.96951 0.4754636 -6.428394 -1.636147 4.276058 10.94417 4.011654 -0 11.83174 -0 -1.475732 -14.71935 -2.480102 1.088173 -22.95445 -3.569931 -0 35.81061 -0 -6.908442 -7.018461 19.27412 -1.692556 0.8835887 6.562841 0.8207083 10.14875 -5.390807 1.480599 21.73938 6.134259 2.577617 -19.72897 6.596552 4.738161 -19.19162 12.08092 79.7517 33.30092 -8.584739 -0 0 16.2771 -25.57742 15.91416 14.73856 2.530225 -18.18622 -2.843043 -89.04932 23.10368 21.23471 0 0 -16.44578 -1.772562 10.81689 17.84557
3.303401 98.22233 92.81652 0.1863011 -5.374679 -2.257034 3.887446 14.11975 3.783637 -0 12.11092 -0 -0.9001207 -16.80262 -1.557027 2.12389 -26.51574 -2.847523 -0 25.83297 -0 -6.394208 -6.914481 19.62571 -1.800959 0.8424245 6.720796 0.6775962 10.24607 -5.202015 1.589513 21.75433 6.040698 2.433868 -19.29524 6.678438 4.674274 -19.36966 12.06972 79.4131 32.63267 -7.979599 -0 0 16.89172 -26.15033 16.03005 14.98434 2.456729 -17.87572 -2.909369 -89.05231 22.77895 21.39489 0 0 -15.9354 -1.957906 10.6215 17.89468
3.889733 96.93261 99.08046 0.2333801 -4.499521 -2.781111 3.036787 16.65859 3.730716 -0 14.06169 -0 -0.3164325 -16.78245 -0.9842374 2.007071 -27.98772 -3.001982 -0 19.84649 -0 -5.793328 -6.772622 19.63865 -1.875913 0.8004749 6.778193 0.5744452 10.36936 -5.112384 1.67588 21.76015 6.006758 2.322495 -18.91829 6.794617 4.649669 -19.40453 12.05142 79.40196 32.11387 -7.85892 -0 0 17.19973 -26.62205 16.25037 15.11772 2.413918 -17.67836 -3.01051 -88.99537 22.53185 21.388 0 0 -15.57654 -2.124839 10.44907 17.93394
